<svg xmlns="http://www.w3.org/2000/svg" viewBox="0 0 200 200" width="200" height="200">
  <defs>
    <linearGradient id="circleGrad" x1="0%" y1="0%" x2="100%" y2="100%">
      <stop offset="0%" style="stop-color:#0D9488"/>
      <stop offset="100%" style="stop-color:#0A7A70"/>
    </linearGradient>
    <linearGradient id="shieldGradIcon" x1="0%" y1="0%" x2="0%" y2="100%">
      <stop offset="0%" style="stop-color:#FFFFFF"/>
      <stop offset="100%" style="stop-color:#CCFBF1"/>
    </linearGradient>
  </defs>
  <circle cx="100" cy="100" r="95" fill="url(#circleGrad)"/>
  <circle cx="100" cy="100" r="90" fill="none" stroke="#0D9488" stroke-width="2"/>
  <path d="M100 25 L155 40 L155 90 C155 130 100 165 100 165 C100 165 45 130 45 90 L45 40 Z"
        fill="url(#shieldGradIcon)" stroke="#CCFBF1" stroke-width="2"/>
  <path d="M100 105 Q82 88 100 70" fill="none" stroke="#D4A853" stroke-width="4" stroke-linecap="round"/>
  <path d="M100 105 Q118 88 100 70" fill="none" stroke="#D4A853" stroke-width="4" stroke-linecap="round"/>
  <path d="M100 105 Q72 80 100 55" fill="none" stroke="#D4A853" stroke-width="3" stroke-linecap="round" opacity="0.85"/>
  <path d="M100 105 Q128 80 100 55" fill="none" stroke="#D4A853" stroke-width="3" stroke-linecap="round" opacity="0.85"/>
  <path d="M100 105 Q62 72 100 40" fill="none" stroke="#D4A853" stroke-width="2.5" stroke-linecap="round" opacity="0.7"/>
  <path d="M100 105 Q138 72 100 40" fill="none" stroke="#D4A853" stroke-width="2.5" stroke-linecap="round" opacity="0.7"/>
  <circle cx="100" cy="120" r="10" fill="#D4A853"/>
  <path d="M82 150 Q82 135 100 135 Q118 135 118 150" fill="#D4A853"/>
</svg>
